Coordinates
version=1
nRows=7
nColumns=63
inDegrees=yes

Units are S.I. units (second, meters, Newtons, ...)
If the header above contains a line with 'inDegrees', this indicates whether rotational values are in degrees (yes) or radians (no).

endheader
time	pelvis_tilt	pelvis_list	pelvis_rotation	pelvis_tx	pelvis_ty	pelvis_tz	hip_flexion_r	hip_adduction_r	hip_rotation_r	knee_angle_r	knee_angle_r_beta	ankle_angle_r	subtalar_angle_r	mtp_angle_r	hip_flexion_l	hip_adduction_l	hip_rotation_l	knee_angle_l	knee_angle_l_beta	ankle_angle_l	subtalar_angle_l	mtp_angle_l	L5_S1_Flex_Ext	L5_S1_Lat_Bending	L5_S1_axial_rotation	L4_L5_Flex_Ext	L4_L5_Lat_Bending	L4_L5_axial_rotation	L3_L4_Flex_Ext	L3_L4_Lat_Bending	L3_L4_axial_rotation	L2_L3_Flex_Ext	L2_L3_Lat_Bending	L2_L3_axial_rotation	L1_L2_Flex_Ext	L1_L2_Lat_Bending	L1_L2_axial_rotation	L1_T12_Flex_Ext	L1_T12_Lat_Bending	L1_T12_axial_rotation	Abs_r3	Abs_r2	Abs_r1	Abs_t1	Abs_t2	neck_flexion	neck_bending	neck_rotation	arm_flex_r	arm_add_r	arm_rot_r	elbow_flex_r	pro_sup_r	wrist_flex_r	wrist_dev_r	arm_flex_l	arm_add_l	arm_rot_l	elbow_flex_l	pro_sup_l	wrist_flex_l	wrist_dev_l
      2.32203390	     -2.64323811	     -1.35550373	     78.10320879	      0.33147453	      0.76994607	      0.64148538	      5.26301286	      1.16764449	     18.12148128	     19.85305263	      0.34650113	     27.49473323	    -12.17690255	      0.00000000	      1.17041887	     -2.50353634	    -14.77152247	     19.04308401	      0.33236452	     24.84202883	      0.99200786	      0.00000000	     -0.03565921	     -0.18032889	      4.01344578	     -0.06622272	     -0.23983743	      4.26428614	     -0.05858452	     -0.43845167	      4.26428614	     -0.04075491	     -0.43845167	      3.51176506	     -0.03311314	     -0.36772668	      3.26092470	     -0.02037567	     -0.27932946	      3.01008433	     -0.25471018	     -2.03991651	     22.32158139	      0.00000000	      0.00000000	      9.53011256	      1.81850399	     -9.13444333	     25.98118030	    -11.79679684	      6.36926039	     89.96847558	     86.28290601	      0.35816383	      0.98307407	     41.87472656	     -8.34464125	     33.83386912	     77.00978036	     68.04415614	     -0.88667954	      1.03568241
      2.33898305	     -2.77961810	     -0.94412370	     77.71997513	      0.33167638	      0.76961574	      0.64247158	      5.19080454	      1.03138666	     18.49068169	     20.27588392	      0.35388093	     27.66654352	    -12.11726412	      0.00000000	      1.06488974	     -2.33309246	    -14.78042218	     19.46450063	      0.33971962	     25.12993323	      0.90665023	      0.00000000	     -0.02292186	     -0.18918431	      3.95988853	     -0.04256818	     -0.25161513	      4.20738156	     -0.03765832	     -0.45998273	      4.20738156	     -0.02619739	     -0.45998273	      3.46490246	     -0.02128524	     -0.38578465	      3.21740943	     -0.01309755	     -0.29304650	      2.96991640	     -0.16372854	     -2.14009077	     22.02371203	      0.00000000	      0.00000000	      7.30190563	      2.22497752	     -9.28370079	     26.28282315	    -13.65595928	      7.95856771	     86.84591846	     85.47271906	      6.00555238	      2.46444438	     42.72260478	    -10.23631021	     36.26499773	     74.43192151	     62.41935675	      0.74802934	      2.82890779
      2.35593220	     -2.89524905	     -0.52880165	     77.58628295	      0.33145316	      0.76925743	      0.64327158	      5.03493726	      0.84825200	     18.52771527	     20.57216705	      0.35905205	     27.96642241	    -11.81981515	      0.00000000	      0.99705588	     -2.12387769	    -14.33812917	     19.88584468	      0.34707346	     25.44673722	      0.51486164	      0.00000000	     -0.02998125	     -0.19404768	      3.75368511	     -0.05567819	     -0.25808342	      3.98829043	     -0.04925620	     -0.47180754	      3.98829043	     -0.03426558	     -0.47180754	      3.28447447	     -0.02784059	     -0.39570204	      3.04986915	     -0.01713129	     -0.30057986	      2.81526383	     -0.21415310	     -2.19510620	     20.87687049	      0.00000000	      0.00000000	      5.72716917	      2.27272137	     -8.73771562	     28.06882283	    -15.88606637	     11.18838506	     82.74537349	     85.46784630	     10.95621060	      2.91576303	     43.75777341	    -12.97236544	     38.99029650	     72.60291018	     55.56379766	      2.85647674	      5.17614987
      2.37288136	     -2.94184993	     -0.22531779	     77.69943997	      0.33090132	      0.76891635	      0.64374320	      4.89214616	      0.72681996	     18.37736218	     20.73225661	      0.36184614	     28.26528329	    -11.53000516	      0.00000000	      1.00960604	     -1.97838253	    -13.68151096	     20.23440807	      0.35315704	     25.80638976	      0.02179602	      0.00000000	     -0.03355983	     -0.19113006	      3.45208580	     -0.06232396	     -0.25420298	      3.66784116	     -0.05513544	     -0.46471362	      3.66784116	     -0.03835553	     -0.46471362	      3.02057507	     -0.03116366	     -0.38975241	      2.80481971	     -0.01917609	     -0.29606046	      2.58906435	     -0.23971449	     -2.16210143	     19.19946559	      0.00000000	      0.00000000	      4.63225769	      2.16258473	     -7.75816921	     31.16592511	    -18.24473482	     15.79581460	     77.99445783	     86.07379850	     14.32940734	      3.22463076	     45.15474102	    -16.10923096	     42.01284831	     71.02249738	     48.98142512	      5.56270042	      8.07317078
      2.38983051	     -2.97880545	      0.04800790	     77.97974486	      0.33040216	      0.76878116	      0.64393746	      4.70777011	      0.65021960	     18.27574899	     20.80970360	      0.36319784	     28.56573815	    -11.51935471	      0.00000000	      0.97491297	     -1.88346487	    -13.21160808	     20.45940574	      0.35708399	     26.26229045	     -0.15073484	      0.00000000	     -0.04715465	     -0.19274489	      3.14494042	     -0.08757089	     -0.25635071	      3.34149920	     -0.07747037	     -0.46863993	      3.34149920	     -0.05389305	     -0.46863993	      2.75182287	     -0.04378780	     -0.39304539	      2.55526409	     -0.02694416	     -0.29856184	      2.35870532	     -0.33682092	     -2.18036878	     17.49121514	      0.00000000	      0.00000000	      4.05175649	      1.88713801	     -6.93499129	     34.81740091	    -20.38148832	     21.07595241	     73.52755629	     86.77804250	     14.79796982	      4.80668794	     47.17922964	    -19.23019905	     45.43457978	     69.33289898	     47.62960718	      8.71830173	     10.06351485
      2.40677966	     -2.88280416	      0.18191747	     78.56183911	      0.32951164	      0.76906667	      0.64355905	      4.46496513	      0.66199247	     17.82429685	     20.59920435	      0.35952394	     28.71947040	    -11.41068845	      0.00000000	      0.99038169	     -1.85433274	    -12.10450058	     20.53123311	      0.35833762	     26.58104703	     -0.81979901	      0.00000000	     -0.03652643	     -0.17742032	      2.83943750	     -0.06783324	     -0.23596902	      3.01690235	     -0.06000927	     -0.43137976	      3.01690235	     -0.04174606	     -0.43137976	      2.48450782	     -0.03391844	     -0.36179551	      2.30704297	     -0.02087120	     -0.27482407	      2.12957813	     -0.26090465	     -2.00701413	     15.79209957	      0.00000000	      0.00000000	      3.50437871	      1.70976661	     -6.18942647	     38.05967224	    -22.31766115	     26.54529035	     70.04722630	     87.24584329	     11.39657803	      7.11471512	     49.55398823	    -21.90630009	     48.61488741	     67.54328031	     55.33342961	     12.71958777	     10.19287997
      2.42372881	     -2.84252002	      0.36857856	     79.12333341	      0.32908054	      0.76990108	      0.64312293	      4.12106570	      0.64864381	     17.52472664	     20.30425476	      0.35437610	     28.75397769	    -11.54587074	      0.00000000	      0.82906524	     -1.84384978	    -11.57956022	     20.43866813	      0.35672205	     26.96877210	     -0.78086342	      0.00000000	     -0.04107492	     -0.18670474	      2.63212306	     -0.07628023	     -0.24831731	      2.79663075	     -0.06748199	     -0.45395392	      2.79663075	     -0.04694453	     -0.45395392	      2.30310767	     -0.03814217	     -0.38072831	      2.13859998	     -0.02347021	     -0.28920565	      1.97409229	     -0.29339404	     -2.11204141	     14.63907880	      0.00000000	      0.00000000	      3.21794776	      1.64604864	     -6.68261687	     39.93106619	    -23.74375262	     30.13954708	     68.04827687	     87.71050989	      6.00502373	     10.17787500	     52.54169503	    -24.11165069	     51.42801121	     66.57966450	     80.87177898	     14.35101809	      4.88762948
